<?xml version="1.0" standalone="no"?><!DOCTYPE svg PUBLIC "-//W3C//DTD SVG 1.1//EN" "http://www.w3.org/Graphics/SVG/1.1/DTD/svg11.dtd"><svg t="1689987189531" class="icon" viewBox="0 0 1024 1024" version="1.1" xmlns="http://www.w3.org/2000/svg" p-id="3515" xmlns:xlink="http://www.w3.org/1999/xlink" width="200" height="200"><path d="M14.89730369 512c0 275.06349195 222.03920435 497.10269631 497.10269631 497.10269631s497.10269631-222.03920435 497.10269631-497.10269631-222.03920435-497.10269631-497.10269631-497.10269631-497.10269631 222.03920435-497.10269631 497.10269631z" fill="#d81e06" p-id="3516"></path><path d="M827.65136849 505.49172435c-8.13534454-29.28724036-22.77896473-56.94741185-40.67672276-81.35344547-21.15189584-27.66017148-48.81206729-52.06620511-78.09930765-69.96396311-30.91430928-17.89775802-66.70982531-29.28724036-102.50534129-29.28724039l-16.27068911-56.94741182c-1.6270689-9.76241345 1.6270689-19.52482692 8.13534454-26.03310258 6.50827565-8.13534454 16.2706891-13.01655127 26.03310255-13.01655127 14.64362017 0 29.28724036 4.88120672 40.67672277 13.01655127 4.88120672 1.6270689 8.13534454 6.50827565 11.38948235 9.76241348 19.52482692 11.38948236 45.55792946 4.88120672 56.94741183-14.64362019 6.50827565-11.38948236 8.13534454-24.40603363 3.25413782-35.79551601-3.25413782-8.13534454-9.76241345-14.64362017-16.27068908-19.52482693-19.52482692-14.64362017-40.67672274-24.40603363-63.4556875-30.91430928-21.15189584-4.88120672-42.30379165-4.88120672-63.45568748 1.62706892-16.2706891 4.88120672-30.91430928 14.64362017-43.93086055 26.03310254-13.01655127 9.76241345-22.77896473 22.77896473-29.28724039 37.42258491-13.01655127 26.03310254-14.64362017 53.69327404-6.50827564 81.35344551l9.76241346 37.42258492c-45.55792946 11.38948236-86.23465222 39.04965382-112.26775475 78.09930766-22.77896473 32.5413782-32.5413782 71.59103203-30.91430928 112.26775476 0 17.89775802 3.25413782 35.79551602 9.76241344 53.69327404 9.76241345 30.91430928 30.91430928 56.94741185 56.94741182 74.84516983 29.28724036 17.89775802 63.4556875 24.40603363 97.62413461 17.89775802 66.70982531-13.01655127 113.89482366-73.21810095 112.26775476-139.92792624l-3.25413782-22.77896474c-8.13534454-32.5413782-17.89775802-65.08275641-26.03310254-97.62413457 11.38948236 3.25413782 22.77896473 6.50827565 34.16844712 13.01655127 11.38948236 6.50827565 22.77896473 16.2706891 34.16844707 24.40603362 24.40603363 21.15189584 42.30379165 48.81206729 52.0662051 79.7263766 11.38948236 37.42258493 11.38948236 76.47223876 0 112.26775475-3.25413782 13.01655127-9.76241345 24.40603363-16.27068907 35.79551604-26.03310254 48.81206729-68.3368942 84.60758331-120.40309933 102.50534133-29.28724036 11.38948236-61.82861859 16.2706891-92.74292784 16.27068907-39.04965382 0-76.47223876-9.76241345-110.64068587-26.03310256-56.94741185-30.91430928-99.25120349-79.7263766-122.03016823-139.92792624-16.2706891-40.67672274-21.15189584-86.23465222-14.64362018-130.16551276 13.01655127-94.36999679 76.47223876-175.72344225 165.9610288-209.89188936 21.15189584-8.13534454 30.91430928-32.5413782 22.77896472-53.69327404-3.25413782-6.50827565-8.13534454-13.01655127-14.6436202-17.89775801-14.64362017-8.13534454-30.91430928-8.13534454-45.55792946-1.6270689-104.13241022 42.30379165-180.60464898 133.41965058-205.01068262 244.06033647-26.03310254 115.5218926 8.13534454 237.55206083 92.74292785 322.15964413 47.18499837 48.81206729 110.64068585 82.98051441 177.35051117 94.36999675 32.5413782 4.88120672 66.70982531 4.88120672 99.25120348 0 47.18499837-4.88120672 94.36999679-21.15189584 135.04671951-47.18499838 55.32034291-35.79551602 99.25120349-87.86172112 122.03016823-149.69033968 8.13534454-24.40603363 14.64362017-52.06620511 16.27068912-78.09930768 1.6270689-34.1684471-1.6270689-65.08275641-9.76241348-95.99706568z m-296.12654157 84.60758333c-14.64362017 3.25413782-29.28724036 0-40.67672276-8.13534458-14.64362017-11.38948236-24.40603363-26.03310254-26.03310253-43.93086056-3.25413782-16.2706891-3.25413782-30.91430928 0-47.18499838s11.38948236-32.5413782 24.40603364-45.55792947c16.2706891-16.2706891 35.79551602-27.66017148 56.94741183-32.54137818l27.66017149 105.75947914c1.6270689 6.50827565 3.25413782 13.01655127 3.25413782 19.52482689 0 26.03310254-19.52482692 47.18499837-45.55792949 52.06620514z" fill="#ffffff" p-id="3517"></path></svg>